 <svg  version="1.0" xmlns="http://www.w3.org/2000/svg"  width="82.000000pt" height="79.000000pt" viewBox="0 0 82.000000 79.000000"  preserveAspectRatio="xMidYMid meet">  <g transform="translate(0.000000,79.000000) scale(0.100000,-0.100000)" fill="#283e8e" stroke="none"> <path d="M27 754 c12 -16 29 -54 38 -84 47 -157 60 -171 192 -207 48 -14 96 -27 106 -30 12 -4 17 0 17 15 0 29 -29 60 -91 96 -61 37 -73 65 -37 90 12 9 29 16 38 16 32 0 92 -22 111 -41 18 -18 19 -28 14 -87 -6 -60 -5 -69 14 -86 12 -11 23 -17 25 -15 7 7 48 123 53 150 6 32 -70 129 -120 152 -64 31 -152 49 -266 54 l-114 6 20 -29z"/> <path d="M513 620 c24 -28 27 -38 21 -76 -6 -41 -4 -46 29 -79 19 -19 44 -35 56 -35 26 0 26 -2 -4 58 -14 28 -25 55 -25 61 0 14 -58 79 -84 93 -17 9 -16 5 7 -22z"/> <path d="M557 623 c17 -16 34 -39 38 -53 11 -37 34 -70 50 -70 11 0 9 11 -10 51 -27 59 -37 70 -80 87 l-30 12 32 -27z"/> <path d="M326 287 c-33 -95 -34 -92 42 -170 47 -50 60 -57 134 -77 52 -15 124 -25 192 -28 l108 -5 -25 44 c-14 24 -34 75 -43 114 -26 103 -53 126 -188 165 -60 17 -111 28 -114 25 -3 -3 2 -20 11 -39 10 -22 34 -44 70 -65 68 -39 84 -57 71 -79 -25 -38 -125 -34 -169 8 -20 19 -22 28 -17 89 3 54 1 70 -13 84 -9 9 -20 17 -23 17 -4 0 -20 -37 -36 -83z"/> <path d="M178 355 c-4 -4 33 -93 61 -144 4 -8 27 -30 51 -50 l45 -36 -28 33 c-22 27 -27 44 -27 87 0 46 -4 58 -31 84 -28 28 -58 39 -71 26z"/> <path d="M160 286 c0 -3 11 -29 23 -58 16 -35 33 -58 51 -66 39 -17 42 -15 17 11 -12 13 -32 43 -44 67 -19 37 -47 65 -47 46z"/> </g> </svg> 